H0918M_states
version=1
nRows=4
nColumns=55
inDegrees=yes

# SIMM Motion File Header:
name H0918M_states
datacolumns 55
datarows 4
otherdata 1
range 0.55968136 0.56093556
endheader
time	/jointset/ground_pelvis/pelvis_tilt/value	/jointset/ground_pelvis/pelvis_tilt/speed	/jointset/ground_pelvis/pelvis_tx/value	/jointset/ground_pelvis/pelvis_tx/speed	/jointset/ground_pelvis/pelvis_ty/value	/jointset/ground_pelvis/pelvis_ty/speed	/jointset/hip_r/hip_flexion_r/value	/jointset/hip_r/hip_flexion_r/speed	/jointset/knee_r/knee_angle_r/value	/jointset/knee_r/knee_angle_r/speed	/jointset/ankle_r/ankle_angle_r/value	/jointset/ankle_r/ankle_angle_r/speed	/jointset/hip_l/hip_flexion_l/value	/jointset/hip_l/hip_flexion_l/speed	/jointset/knee_l/knee_angle_l/value	/jointset/knee_l/knee_angle_l/speed	/jointset/ankle_l/ankle_angle_l/value	/jointset/ankle_l/ankle_angle_l/speed	/forceset/hamstrings_r/activation	/forceset/hamstrings_r/fiber_length	/forceset/bifemsh_r/activation	/forceset/bifemsh_r/fiber_length	/forceset/glut_max_r/activation	/forceset/glut_max_r/fiber_length	/forceset/iliopsoas_r/activation	/forceset/iliopsoas_r/fiber_length	/forceset/rect_fem_r/activation	/forceset/rect_fem_r/fiber_length	/forceset/vasti_r/activation	/forceset/vasti_r/fiber_length	/forceset/gastroc_r/activation	/forceset/gastroc_r/fiber_length	/forceset/soleus_r/activation	/forceset/soleus_r/fiber_length	/forceset/tib_ant_r/activation	/forceset/tib_ant_r/fiber_length	/forceset/hamstrings_l/activation	/forceset/hamstrings_l/fiber_length	/forceset/bifemsh_l/activation	/forceset/bifemsh_l/fiber_length	/forceset/glut_max_l/activation	/forceset/glut_max_l/fiber_length	/forceset/iliopsoas_l/activation	/forceset/iliopsoas_l/fiber_length	/forceset/rect_fem_l/activation	/forceset/rect_fem_l/fiber_length	/forceset/vasti_l/activation	/forceset/vasti_l/fiber_length	/forceset/gastroc_l/activation	/forceset/gastroc_l/fiber_length	/forceset/soleus_l/activation	/forceset/soleus_l/fiber_length	/forceset/tib_ant_l/activation	/forceset/tib_ant_l/fiber_length
      0.55968136	    -14.37799711	    -11.45248934	      0.48117340	      0.82000269	      0.45962960	     -2.34167172	     49.74958553	    -57.90062214	   -134.17464642	   -289.18302557	     24.52922012	     57.37615777	    112.87136406	    252.28151073	   -113.03423810	   -340.91126674	     12.10293997	    291.02628815	     -0.06205898	      0.10017147	     -0.06205898	      0.12326861	     -0.06205898	      0.12339588	     -0.06205898	      0.07940522	     -0.04374926	      0.13170024	     -0.03550272	      0.11785622	     -0.04236047	      0.05500235	     -0.04604451	      0.06103895	     -0.03657817	      0.06098330	     -0.05977317	      0.13828006	     -0.05394077	      0.14093753	     -0.06102383	      0.14564565	     -0.03216161	      0.06644038	     -0.06205898	      0.08634378	     -0.06205898	      0.11596755	     -0.06205898	      0.04339280	     -0.06205898	      0.05348080	     -0.03358332	      0.08379055
      0.56009943	    -14.38275425	    -11.30506177	      0.48151652	      0.82147872	      0.45865021	     -2.34363367	     49.72506748	    -59.39190148	   -134.29545653	   -288.76220723	     24.55324693	     57.56372330	    112.97688329	    252.51717259	   -113.17679825	   -341.08879053	     12.22464643	    291.16377717	     -0.06211280	      0.10017498	     -0.06211280	      0.12322644	     -0.06211280	      0.12338165	     -0.06211280	      0.07937892	     -0.04380309	      0.13171280	     -0.03555654	      0.11785404	     -0.04241430	      0.05498511	     -0.04609833	      0.06105003	     -0.03663200	      0.06096755	     -0.05982699	      0.13828294	     -0.05399460	      0.14089132	     -0.06107766	      0.14565031	     -0.03221543	      0.06641880	     -0.06211280	      0.08633362	     -0.06211280	      0.11599527	     -0.06211280	      0.04347403	     -0.06211280	      0.05355697	     -0.03363714	      0.08376358
      0.56051750	    -14.38744946	    -11.15610802	      0.48186027	      0.82296934	      0.45767001	     -2.34559840	     49.69992564	    -60.88487501	   -134.41609055	   -288.34068402	     24.57734731	     57.72798027	    113.08250620	    252.77891451	   -113.31943875	   -341.29701088	     12.34635002	    291.00232534	     -0.06216663	      0.10017801	     -0.06216663	      0.12318428	     -0.06216663	      0.12336702	     -0.06216663	      0.07935264	     -0.04385692	      0.13172575	     -0.03561037	      0.11785172	     -0.04246812	      0.05496794	     -0.04615216	      0.06106119	     -0.03668583	      0.06095169	     -0.05988082	      0.13828581	     -0.05404842	      0.14084511	     -0.06113149	      0.14565487	     -0.03226926	      0.06639724	     -0.06216663	      0.08632339	     -0.06216663	      0.11602279	     -0.06216663	      0.04355553	     -0.06216663	      0.05363313	     -0.03369097	      0.08373661
      0.56093556	    -14.39208200	    -11.00525556	      0.48220464	      0.82447766	      0.45668898	     -2.34756635	     49.67415916	    -62.38024873	   -134.53654822	   -287.91854624	     24.60151107	     57.86676087	    113.18824523	    253.07364946	   -113.46217366	   -341.54089267	     12.46791788	    290.51358676	     -0.06222045	      0.10018058	     -0.06222045	      0.12314213	     -0.06222045	      0.12335199	     -0.06222045	      0.07932636	     -0.04391074	      0.13173910	     -0.03566420	      0.11784925	     -0.04252195	      0.05495089	     -0.04620599	      0.06107242	     -0.03673965	      0.06093574	     -0.05993464	      0.13828868	     -0.05410225	      0.14079892	     -0.06118531	      0.14565931	     -0.03232309	      0.06637570	     -0.06222045	      0.08631307	     -0.06222045	      0.11605013	     -0.06222045	      0.04363728	     -0.06222045	      0.05370927	     -0.03374479	      0.08370964
